HIERARCHY
ROOT Hips
{
    OFFSET 0.000000 0.000000 0.000000
    CHANNELS 6 Xposition Yposition Zposition Zrotation Xrotation Yrotation
        JOINT Spine1
        {
            OFFSET -0.000000 23.269398 0.000000
            CHANNELS 3 Zrotation Xrotation Yrotation
            JOINT Neck
            {
                OFFSET -0.000000 18.032967 0.000000
                CHANNELS 3 Zrotation Xrotation Yrotation
                JOINT Head
                {
                    OFFSET -0.000000 13.091072 1.689171
                    CHANNELS 3 Zrotation Xrotation Yrotation
                    End Site
                    {
                        OFFSET -0.000000 16.891708 0.000000
                    }
                }
            }
            JOINT LeftShoulder
            {
                OFFSET 3.336773 14.146137 -0.012206
                CHANNELS 3 Zrotation Xrotation Yrotation
                JOINT LeftArm
                {
                    OFFSET 11.765518 0.000000 0.000000
                    CHANNELS 3 Zrotation Xrotation Yrotation
                    JOINT LeftForeArm
                    {
                        OFFSET 25.163450 0.000000 0.000000
                        CHANNELS 3 Zrotation Xrotation Yrotation
                        JOINT LeftHand
                        {
                            OFFSET 21.783554 0.000000 0.000000
                            CHANNELS 3 Zrotation Xrotation Yrotation
                            End Site
                            {
                                OFFSET 12.668781 0.000000 0.000000
                            }
                        }
                    }
                }
            }
            JOINT RightShoulder
            {
                OFFSET -3.409204 14.146137 -0.012206
                CHANNELS 3 Zrotation Xrotation Yrotation
                JOINT RightArm
                {
                    OFFSET -11.765518 0.000000 0.000000
                    CHANNELS 3 Zrotation Xrotation Yrotation
                    JOINT RightForeArm
                    {
                        OFFSET -25.163450 0.000000 0.000000
                        CHANNELS 3 Zrotation Xrotation Yrotation
                        JOINT RightHand
                        {
                            OFFSET -21.783554 0.000000 0.000000
                            CHANNELS 3 Zrotation Xrotation Yrotation
                            End Site
                            {
                                OFFSET -12.668781 0.000000 0.000000
                            }
                        }
                    }
                }
            }
        }
        JOINT LeftUpLeg
    {
        OFFSET 8.445854 0.000000 0.000000
        CHANNELS 3 Zrotation Xrotation Yrotation
        JOINT LeftLeg
        {
            OFFSET -0.000000 -40.674755 0.000000
            CHANNELS 3 Zrotation Xrotation Yrotation
            JOINT LeftFoot
            {
                OFFSET -0.000000 -37.111794 0.000000
                CHANNELS 3 Zrotation Xrotation Yrotation
                JOINT LeftToeBase
                {
                    OFFSET -0.000000 -5.489805 12.668781
                    CHANNELS 3 Zrotation Xrotation Yrotation
                    End Site
                    {
                        OFFSET -0.000000 0.000000 3.378341
                    }
                }
            }
        }
    }
    JOINT RightUpLeg
    {
        OFFSET -8.445854 0.000000 0.000000
        CHANNELS 3 Zrotation Xrotation Yrotation
        JOINT RightLeg
        {
            OFFSET -0.000000 -40.674755 0.000000
            CHANNELS 3 Zrotation Xrotation Yrotation
            JOINT RightFoot
            {
                OFFSET -0.000000 -37.111794 0.000000
                CHANNELS 3 Zrotation Xrotation Yrotation
                JOINT RightToeBase
                {
                    OFFSET -0.000000 -5.489805 12.668781
                    CHANNELS 3 Zrotation Xrotation Yrotation
                    End Site
                    {
                        OFFSET -0.000000 0.000000 3.378341
                    }
                }
            }
        }
    }
}
MOTION
Frames:    12
Frame Time:    0.008333
-2.776832    60.372971    106.106583    1.193962    18.884521    -173.892899    0.708849    36.275063    -0.686527    -1.940477    0.194000    10.103747    5.869874    -6.219318    9.748406    4.329780    1.698711    0.570001    -34.899818    17.674969    -60.156590    28.349606    -9.735396    -57.123356    -5.705118    6.193975    -2.666507    -7.207393    3.108949    6.734657    35.748131    8.540966    40.209946    -28.601425    -8.541570    55.103024    -14.847194    5.591041    8.853402    12.094640    -49.523315    4.558265    -32.096535    64.092110    26.690102    0.950407    -6.181046    19.785875    -2.881687    -1.894215    4.323821    -10.625216    -46.082527    -5.790693    10.538321    63.028389    -18.411190    17.381424    -1.641321    22.121674    -0.174377    0.165907    0.244132    
-2.732777    60.346817    106.062782    1.184320    19.088692    -173.800674    0.714096    36.287804    -0.497793    -1.881871    -0.170363    10.138906    5.659034    -5.323174    9.769717    4.471273    1.136774    0.495416    -35.210823    18.323338    -59.855995    28.362448    -9.667503    -56.802799    -5.589994    6.172198    -2.894779    -7.189068    3.116628    6.716377    35.682961    8.585708    40.148777    -28.436579    -8.468249    54.996162    -14.900234    5.528892    8.884823    11.971797    -49.439903    4.334059    -32.283775    64.252029    27.422358    0.969955    -6.291695    19.532442    -4.138955    -3.659310    4.251003    -10.611158    -45.915825    -5.808114    10.589558    63.185055    -18.929310    17.284248    -1.482712    22.533743    -0.141532    0.104892    0.253704    
-2.691631    60.320370    106.025490    1.177692    19.288019    -173.727264    0.584064    36.334232    -0.676370    -1.741414    -0.252916    10.249866    5.451113    -5.029144    9.907242    4.370364    1.685974    0.579641    -34.717876    17.770144    -60.217674    28.298080    -9.637748    -56.756443    -5.759264    6.147712    -2.774792    -7.140582    3.148823    6.693985    35.745396    8.695036    40.373604    -28.326160    -8.364680    54.813194    -14.957344    5.497240    8.961471    11.882783    -49.342239    4.174859    -32.400894    64.380760    27.801352    1.014986    -6.258418    19.547222    -4.071341    -3.560840    4.265039    -10.568487    -45.773174    -5.829539    10.569454    63.348515    -19.232956    17.184809    -1.321545    22.786575    -0.117228    0.057039    0.265886    
-2.639265    60.294598    105.977646    1.116735    19.490751    -173.581573    0.531475    36.378193    -0.634623    -1.832650    -0.214888    10.334111    5.387118    -4.893190    9.980771    4.426673    1.407331    0.559458    -34.800270    18.074532    -60.070297    27.872639    -9.650306    -56.551369    -5.293717    5.834240    -3.305749    -7.158605    3.191398    6.664929    35.726387    8.787272    40.446507    -28.173754    -8.312515    54.603714    -13.314608    5.478694    9.377233    11.706610    -49.219116    4.012428    -32.363190    64.490036    27.785671    1.096397    -6.153456    19.748026    -4.015723    -3.464706    4.313094    -10.584358    -45.588161    -5.873116    10.590799    63.485901    -19.565283    17.139536    -1.560927    22.940523    -0.212601    0.010265    0.655032    
-2.652236    60.259830    105.973900    1.188809    19.763603    -173.736679    0.492158    36.462734    -0.652788    -1.879453    -0.206459    10.447616    5.298229    -4.737405    10.092269    4.430098    1.432591    0.573716    -34.723328    18.066317    -60.048073    27.822876    -9.631176    -56.429527    -5.345053    5.790729    -3.388628    -7.176983    3.178795    6.682222    35.787136    8.896429    40.532013    -28.068043    -8.224072    54.442692    -13.374927    5.443671    9.451969    11.828796    -49.021523    4.021828    -32.565464    64.582764    28.279232    1.185563    -6.071455    19.720650    -3.991339    -3.424127    4.330221    -9.830813    -45.540443    -5.316364    9.351802    63.735939    -19.963877    17.404711    -1.057916    24.024717    -0.200168    -0.013513    0.660296    
-2.622167    60.233643    105.951813    1.182013    19.977629    -173.725891    0.490733    36.503727    -0.495804    -2.092684    -0.201145    10.590796    5.359849    -4.617832    10.201356    4.433739    1.139387    0.502652    -34.891674    18.390898    -59.805347    28.259779    -9.510366    -56.269043    -5.643049    6.113507    -3.237766    -7.245843    3.245247    6.604289    35.772343    8.963859    40.648693    -27.959677    -8.147761    54.273899    -13.427824    5.394329    9.520016    11.822183    -48.879578    3.946960    -32.718235    64.654747    28.588537    1.294604    -5.966349    19.695698    -3.965684    -3.387294    4.333987    -10.168534    -45.642921    -5.567516    10.186356    64.545319    -14.612464    16.847111    -2.605932    18.740746    0.019058    0.196287    -0.424390    
-2.718201    60.193329    105.864250    0.906605    20.361450    -173.620895    0.143878    36.803474    -0.880304    -1.991149    -0.344352    10.721431    5.247591    -4.370609    10.350911    4.318931    1.638266    0.571825    -34.404259    17.810005    -60.105713    28.089550    -9.495583    -56.256020    -5.692006    6.026321    -3.213185    -7.180486    3.214825    6.601571    35.858204    9.084715    40.856743    -27.858509    -8.073444    54.108604    -13.439924    5.356092    9.553017    11.259286    -48.565601    3.487147    -32.951111    64.836327    29.525269    1.228183    -6.065462    19.268017    -3.974357    -3.396438    4.340706    -10.755430    -45.479122    -6.149510    9.890796    65.630959    1.091705    15.531182    -7.506069    4.398118    0.040762    0.146524    -0.401539    
-2.701897    60.167187    105.842064    0.874411    20.572121    -173.622437    0.027631    36.865814    -0.896919    -2.016890    -0.310723    10.799641    5.177228    -4.283791    10.430249    4.329506    1.668526    0.559499    -34.328053    17.755846    -60.084171    27.970953    -9.476758    -56.151627    -5.900057    5.947875    -3.189439    -7.150007    3.201824    6.599299    35.891228    9.154392    40.987316    -27.784792    -7.979986    53.989044    -15.130583    5.278234    9.183738    11.251352    -48.410198    3.431442    -33.102604    64.892967    29.729809    1.170812    -5.994852    19.247059    -4.012934    -3.465497    4.301886    -10.882893    -45.311089    -6.232650    10.517967    65.700134    0.676643    15.194775    -7.717101    4.148353    -0.047379    -0.001460    0.153395    
-2.534628    60.154362    105.901649    1.153834    20.588675    -173.754944    0.130413    36.700459    -0.560691    -2.048155    -0.356133    10.873611    5.084037    -4.105859    10.504004    4.364515    1.406533    0.519752    -34.432564    17.966900    -59.879345    27.866602    -9.414312    -56.055279    -5.934738    5.926345    -3.294068    -7.142055    3.241653    6.549517    35.928371    9.196830    41.103207    -27.680300    -7.898164    53.846607    -15.142824    5.255345    9.201633    11.843245    -48.525043    3.801946    -33.042789    65.011711    29.510969    1.090067    -5.821545    19.241245    -4.070363    -3.536875    4.320118    -10.591187    -45.248436    -5.984535    11.613932    65.410965    -0.390028    14.754051    -7.593277    4.101113    -0.078601    0.155788    -0.039925    
-2.494839    60.822899    106.141975    1.511972    17.011742    -173.502472    0.297546    33.006699    -1.152651    -2.215246    -0.414875    11.042562    5.224343    -3.991187    10.640178    4.337213    1.388230    0.518950    -34.377888    17.924994    -59.768929    27.659555    -9.412980    -56.016941    -5.971088    5.808170    -3.487609    -7.162462    3.267227    6.516433    36.011772    9.291444    41.283436    -27.611441    -7.820251    53.668541    -15.153078    5.238239    9.212498    11.845245    -51.339993    3.877560    -31.453409    63.695618    28.097998    0.962056    -5.062456    19.267366    -4.117288    -3.610425    4.297870    -11.333695    -47.948853    -6.775994    11.236633    64.066040    -0.333408    15.327518    -6.799909    4.157329    -0.522520    0.991620    -0.174735    
-2.493233    60.097782    105.884377    1.163166    20.906719    -173.846786    -0.030103    36.713554    -0.585449    -2.265354    -0.391493    11.128546    5.151191    -3.953964    10.727280    4.315276    1.357917    0.517829    -34.283695    17.926474    -59.701538    27.558483    -9.431713    -55.926125    -6.026351    5.711765    -3.628137    -7.158449    3.270121    6.496389    36.081917    9.355706    41.435402    -27.537296    -7.720010    53.493103    -15.150679    5.240778    9.239162    11.961421    -48.329838    3.870823    -33.091213    65.222061    29.555706    0.853546    -5.687614    19.189880    -4.150362    -3.659502    4.288826    -10.208235    -45.176636    -5.707551    10.972829    65.841103    0.123772    14.515468    -7.157042    4.331470    0.227463    -0.027459    -0.675678    
-2.476335    60.071945    105.885757    1.153517    21.065041    -173.892410    -0.104632    36.709896    -0.574488    -2.354435    0.121977    11.192228    4.982158    -4.662397    10.817482    4.249588    1.364472    0.479465    -34.186649    17.868010    -59.626144    27.416248    -9.451706    -55.858147    -6.110630    5.598358    -3.750930    -7.142142    3.268402    6.501561    36.112137    9.449346    41.531464    -27.515003    -7.648295    53.323566    -15.155146    5.249875    9.224159    12.009965    -48.222523    3.857854    -33.205353    65.284607    29.658873    0.731079    -5.677025    19.165985    -4.178097    -3.697096    4.289914    -9.993734    -45.053780    -5.588635    10.879059    65.892548    0.237198    14.519291    -7.981866    3.711861    -0.591098    0.605007    0.737053    
